Coordinates
version=1
nRows=29
nColumns=18
inDegrees=yes

Units are S.I. units (second, meters, Newtons, ...)
If the header above contains a line with 'inDegrees', this indicates whether rotational values are in degrees (yes) or radians (no).

endheader
time	ground_thorax_rot_x	ground_thorax_rot_y	ground_thorax_rot_z	ground_thorax_tx	ground_thorax_ty	ground_thorax_tz	clav_prot	clav_elev	scapula_abduction	scapula_elevation	scapula_upward_rot	scapula_winging	plane_elv	shoulder_elv	axial_rot	elbow_flexion	pro_sup
      0.84000000	      6.69187273	      8.27170119	    -11.09413484	     -0.00703096	      0.01318509	      0.03195108	    -32.13330980	    -12.28999479	    -38.45508764	    -11.36196274	     16.94107860	     17.81123323	    -46.31975560	     17.03238665	     69.18869144	      0.00225791	    -90.00000000
      0.86000000	      6.79776182	      8.27970692	    -11.42011871	     -0.00495869	      0.01289555	      0.03240080	    -32.17741576	    -12.00455666	    -38.80342175	    -11.09454323	     16.68772828	     17.72360681	    -47.22731715	     17.51615974	     69.36228720	      0.00225791	    -90.00000000
      0.88000000	      6.78000318	      8.13424942	    -11.73795000	     -0.00278095	      0.01261676	      0.03258512	    -32.04734841	    -11.84920076	    -38.79256377	    -10.91412469	     16.45153963	     17.72141601	    -48.76494986	     18.07540451	     70.43127352	      0.00225791	    -90.00000000
      0.90000000	      6.86654197	      8.07840664	    -12.05662178	     -0.00069040	      0.01227419	      0.03302653	    -32.08658619	    -11.56476021	    -39.13170207	    -10.64610459	     16.19817112	     17.64024262	    -49.70348934	     18.59777515	     70.72386120	      0.00225791	    -90.00000000
      0.92000000	      6.95315159	      7.94887500	    -12.38026352	      0.00144206	      0.01193850	      0.03347773	    -32.09569147	    -11.29830843	    -39.39930870	    -10.39341881	     15.96349526	     17.57045174	    -50.68149685	     19.15318499	     71.15111784	      0.00225791	    -90.00000000
      0.94000000	      7.00372433	      7.77138709	    -12.70266020	      0.00356730	      0.01155880	      0.03389248	    -32.09156839	    -11.03505890	    -39.62024816	    -10.14930444	     15.75967817	     17.49882075	    -51.77418983	     19.68554219	     71.86887824	      0.00225791	    -90.00000000
      0.96000000	      7.08719902	      7.63894048	    -13.00353087	      0.00560161	      0.01118661	      0.03438106	    -32.14960853	    -10.73362945	    -39.99554504	     -9.86956075	     15.50960079	     17.41549607	    -52.53547871	     20.26213161	     72.03181325	      0.00225791	    -90.00000000
      0.98000000	      7.14856513	      7.39126582	    -13.33213694	      0.00770973	      0.01077038	      0.03486868	    -32.15757215	    -10.45895328	    -40.23805662	     -9.61865975	     15.31148496	     17.34154558	    -53.39840193	     20.82103207	     72.54617222	      0.00225791	    -90.00000000
      1.00000000	      7.22297884	      7.19350391	    -13.61478225	      0.00965350	      0.01037100	      0.03537256	    -32.19693080	    -10.14379576	    -40.59318243	     -9.32378696	     15.05024980	     17.26415416	    -53.93362107	     21.43710801	     72.40082359	      0.00225791	    -90.00000000
      1.02000000	      7.27208593	      6.94160245	    -13.92664709	      0.01165161	      0.00995402	      0.03589349	    -32.24659915	     -9.86177681	    -40.92146616	     -9.06601933	     14.83809820	     17.19055619	    -54.54125076	     22.01689740	     72.46805467	      0.00225791	    -90.00000000
      1.04000000	      7.31433073	      6.70333706	    -14.25662510	      0.01362848	      0.00950368	      0.03634373	    -32.29253520	     -9.59230752	    -41.22548356	     -8.82197106	     14.64573646	     17.12027606	    -55.18546260	     22.59859046	     72.66569523	      0.00225791	    -90.00000000
      1.06000000	      7.34173235	      6.38849482	    -14.65004949	      0.01573245	      0.00903422	      0.03683337	    -32.34532292	     -9.38820987	    -41.45926541	     -8.64884155	     14.54092159	     17.05552469	    -56.03116844	     23.13175694	     73.65670014	      0.00225791	    -90.00000000
      1.08000000	      7.38250900	      6.12547528	    -14.97868005	      0.01763420	      0.00856323	      0.03732799	    -32.40431146	     -9.11033891	    -41.78865211	     -8.39942952	     14.34999382	     16.98400489	    -56.40570211	     23.71975760	     73.41213126	      0.00225791	    -90.00000000
      1.10000000	      7.43184827	      5.78984580	    -15.31030620	      0.01956370	      0.00812939	      0.03791348	    -32.46957538	     -8.84925236	    -42.11452366	     -8.16595752	     14.17225734	     16.91705437	    -56.62170791	     24.30923480	     73.05092386	      0.00225791	    -90.00000000
      1.12000000	      7.46690378	      5.58266527	    -15.66786677	      0.02139961	      0.00757342	      0.03831091	    -32.55240123	     -8.56851526	    -42.42931990	     -7.93801668	     14.06613006	     16.82337850	    -57.09542391	     24.85155664	     73.04616222	      0.00225791	    -90.00000000
      1.14000000	      7.47676406	      5.24800015	    -16.02701080	      0.02329791	      0.00707409	      0.03881901	    -32.61818481	     -8.33836075	    -42.72098062	     -7.73664077	     13.92523356	     16.76261525	    -57.30897824	     25.40649122	     72.69048537	      0.00225791	    -90.00000000
      1.16000000	      7.48098970	      5.01130928	    -16.40770261	      0.02513142	      0.00650645	      0.03917549	    -32.68716237	     -8.11761027	    -42.99700361	     -7.54936406	     13.81108859	     16.69934218	    -57.63415857	     25.95651423	     72.39206141	      0.00225791	    -90.00000000
      1.18000000	      7.47334299	      4.70333101	    -16.79530771	      0.02697922	      0.00593087	      0.03958873	    -32.75038279	     -7.91068926	    -43.25034691	     -7.37490398	     13.70885554	     16.64029652	    -57.83723505	     26.48157772	     72.01950152	      0.00225791	    -90.00000000
      1.20000000	      7.46079327	      4.42307399	    -17.18841788	      0.02878878	      0.00531512	      0.03994781	    -32.81185737	     -7.70785924	    -43.48923858	     -7.20731883	     13.62181004	     16.58019810	    -58.03435164	     26.99668664	     71.61213405	      0.00225791	    -90.00000000
      1.22000000	      7.43831546	      4.13324801	    -17.58174136	      0.03056505	      0.00467936	      0.04027773	    -32.87017142	     -7.51090810	    -43.71138375	     -7.04754793	     13.54880482	     16.52010640	    -58.18493392	     27.49719708	     71.14837874	      0.00225791	    -90.00000000
      1.24000000	      7.40720524	      3.85316176	    -17.97481211	      0.03229560	      0.00401711	      0.04055584	    -32.92508964	     -7.31841422	    -43.91593224	     -6.89495001	     13.49127411	     16.45906120	    -58.31601313	     27.98425734	     70.63422361	      0.00225791	    -90.00000000
      1.26000000	      7.36750254	      3.57779447	    -18.36923242	      0.03397645	      0.00333592	      0.04077871	    -32.97365516	     -7.13186523	    -44.09632259	     -6.75079071	     13.45054559	     16.39764519	    -58.42759209	     28.45650110	     70.05513169	      0.00225791	    -90.00000000
      1.28000000	      7.30013326	      3.26577374	    -18.76564503	      0.03564320	      0.00264532	      0.04094268	    -33.00780223	     -6.96997529	    -44.21450281	     -6.63508838	     13.45194151	     16.33661764	    -58.52796445	     28.91690337	     69.28403543	      0.00225791	    -90.00000000
      1.30000000	      7.22444362	      2.97177715	    -19.12154513	      0.03719814	      0.00198033	      0.04109273	    -33.03757398	     -6.79152626	    -44.34118886	     -6.50313279	     13.43917577	     16.27545466	    -58.58549538	     29.36943905	     68.43674970	      0.00225791	    -90.00000000
      1.32000000	      7.14205092	      2.68275702	    -19.50131836	      0.03866934	      0.00125354	      0.04108026	    -32.99019977	     -6.61311906	    -44.36179353	     -6.35460876	     13.38582538	     16.24035724	    -58.51762196	     29.83551350	     66.89347353	      0.00225791	    -90.00000000
      1.34000000	      7.04069519	      2.43192622	    -19.84195566	      0.04007723	      0.00054155	      0.04106761	    -33.00338606	     -6.43450860	    -44.49041185	     -6.20928658	     13.32911531	     16.19654493	    -58.44295808	     30.28230907	     65.74291410	      0.00225791	    -90.00000000
      1.36000000	      6.89840763	      2.21790876	    -20.23254856	      0.04137844	     -0.00031865	      0.04088995	    -32.97620902	     -6.21581914	    -44.52589519	     -6.04744279	     13.32987769	     16.13263936	    -58.51931269	     30.61245810	     64.55485342	      0.00225791	    -90.00000000
      1.38000000	      6.83228584	      1.98148563	    -20.47916817	      0.04269764	     -0.00085130	      0.04085782	    -33.03912612	     -6.04219330	    -44.69380109	     -5.92817759	     13.34140860	     16.06372916	    -58.49302939	     31.10061282	     63.90222658	      0.00225791	    -90.00000000
      1.40000000	      6.67392997	      1.73414541	    -20.77561351	      0.04388012	     -0.00151759	      0.04064610	    -32.99740990	     -5.86051580	    -44.74592141	     -5.77004669	     13.26078714	     16.03879731	    -58.31105609	     31.53177912	     62.15322631	      0.00225791	    -90.00000000
